<svg width="17" height="17" viewBox="0 0 17 17" fill="none" xmlns="http://www.w3.org/2000/svg">
<path d="M6.47876 6.42714C6.59974 6.05435 6.82136 5.7226 7.1193 5.46797C7.41725 5.21334 7.78019 5.04601 8.16728 4.9846C8.55436 4.92318 8.95066 4.96995 9.31278 5.11985C9.67491 5.26976 9.98853 5.51703 10.219 5.83407C10.4494 6.1511 10.5874 6.52556 10.6182 6.91628C10.649 7.307 10.5711 7.69873 10.3932 8.04795C10.2153 8.39718 9.94456 8.69018 9.61039 8.89498C9.27622 9.09978 8.89193 9.20817 8.5 9.20817V9.91683M8.5 14.875C4.97918 14.875 2.125 12.0208 2.125 8.5C2.125 4.97918 4.97918 2.125 8.5 2.125C12.0208 2.125 14.875 4.97918 14.875 8.5C14.875 12.0208 12.0208 14.875 8.5 14.875ZM8.53528 12.0417V12.1125L8.46472 12.1126V12.0417H8.53528Z" stroke="black" stroke-opacity="0.5" stroke-width="2" stroke-linecap="round" stroke-linejoin="round"/>
</svg>
