<svg width="20" height="20" viewBox="0 0 20 20" fill="none" xmlns="http://www.w3.org/2000/svg">
<path d="M10.0026 6.66709L3.33594 13.3338V16.6671L6.66927 16.6671L13.3359 10.0004M10.0026 6.66709L12.3931 4.27654L12.3946 4.27513C12.7236 3.94606 12.8885 3.78123 13.0785 3.7195C13.2458 3.66512 13.4261 3.66512 13.5935 3.7195C13.7834 3.78119 13.948 3.94583 14.2766 4.27443L15.7264 5.72426C16.0565 6.05427 16.2215 6.21936 16.2834 6.40963C16.3377 6.577 16.3377 6.75729 16.2833 6.92466C16.2216 7.11479 16.0567 7.27963 15.7272 7.60917L15.7265 7.60988L13.3359 10.0004M10.0026 6.66709L13.3359 10.0004" stroke="currentColor" stroke-width="2" stroke-linecap="round" stroke-linejoin="round"/>
</svg>
