<svg width="28" height="28" viewBox="0 0 28 28" fill="none" xmlns="http://www.w3.org/2000/svg">
<path d="M11.6695 5.83366H9.5695C8.26271 5.83366 7.60883 5.83366 7.1097 6.08798C6.67066 6.31168 6.31396 6.66838 6.09026 7.10742C5.83594 7.60655 5.83594 8.26043 5.83594 9.56722V18.4339C5.83594 19.7407 5.83594 20.3937 6.09026 20.8929C6.31396 21.3319 6.67066 21.6892 7.1097 21.9129C7.60834 22.167 8.26143 22.167 9.56566 22.167H18.4395C19.7438 22.167 20.3959 22.167 20.8946 21.9129C21.3336 21.6892 21.6915 21.3316 21.9152 20.8925C22.1693 20.3939 22.1693 19.7415 22.1693 18.4373V16.3337M23.3359 10.5003V4.66699M23.3359 4.66699H17.5026M23.3359 4.66699L15.1693 12.8337" stroke="currentColor" stroke-width="2" stroke-linecap="round" stroke-linejoin="round"/>
</svg>
