<svg width="24" height="24" viewBox="0 0 24 24" fill="none" xmlns="http://www.w3.org/2000/svg">
<path d="M20.346 8.92293L19.9798 8.7192C19.923 8.68756 19.895 8.67169 19.8675 8.65524C19.5944 8.49165 19.3643 8.26564 19.1963 7.99523C19.1794 7.96802 19.1635 7.93949 19.1309 7.8831C19.0984 7.82677 19.0819 7.79823 19.0667 7.76998C18.9161 7.48866 18.8346 7.17515 18.8297 6.85606C18.8292 6.82398 18.8293 6.79121 18.8304 6.72604L18.8376 6.30078C18.849 5.62025 18.8548 5.27894 18.7591 4.97262C18.6742 4.70053 18.5321 4.44993 18.3423 4.23725C18.1278 3.99685 17.8308 3.82534 17.2363 3.48276L16.7425 3.1982C16.1497 2.85658 15.8532 2.68571 15.5384 2.62057C15.26 2.56294 14.9726 2.56561 14.6952 2.62789C14.382 2.69819 14.0892 2.87351 13.504 3.22396L13.5006 3.22555L13.1468 3.43741C13.0909 3.47091 13.0625 3.48779 13.0345 3.50338C12.7562 3.6581 12.4456 3.74365 12.1273 3.75387C12.0953 3.7549 12.0626 3.7549 11.9974 3.7549C11.9326 3.7549 11.8985 3.7549 11.8665 3.75387C11.5476 3.74361 11.2363 3.65759 10.9576 3.50224C10.9295 3.48658 10.9017 3.46956 10.8457 3.4359L10.4896 3.22213C9.90032 2.86836 9.60524 2.69121 9.29037 2.62057C9.0118 2.55807 8.72346 2.55634 8.444 2.61471C8.12845 2.68062 7.83186 2.85276 7.23868 3.19703L7.23604 3.1982L6.74838 3.48124L6.74298 3.48454C6.15514 3.82572 5.8605 3.99672 5.64779 4.23614C5.45903 4.4486 5.31794 4.69881 5.23349 4.97018C5.13804 5.27691 5.14312 5.61896 5.15463 6.3027L5.16177 6.72736C5.16285 6.79166 5.16473 6.82362 5.16426 6.85525C5.15953 7.17499 5.07695 7.48914 4.92584 7.77096C4.91089 7.79883 4.89479 7.8267 4.86263 7.88237C4.83045 7.93809 4.81487 7.96579 4.79818 7.99268C4.62946 8.26452 4.39823 8.49186 4.12343 8.65572C4.09624 8.67193 4.0676 8.68752 4.01131 8.71871L3.64974 8.91908C3.04818 9.25245 2.74746 9.41928 2.52865 9.65669C2.33508 9.86672 2.18885 10.1158 2.09958 10.3872C1.99868 10.6939 1.99877 11.0378 2.00033 11.7255L2.00161 12.2877C2.00316 12.9708 2.00529 13.3122 2.10641 13.6168C2.19588 13.8863 2.34104 14.134 2.53353 14.3427C2.75111 14.5787 3.04883 14.7445 3.64584 15.0766L4.00418 15.276C4.06516 15.3099 4.09585 15.3266 4.12526 15.3444C4.39757 15.5083 4.62699 15.735 4.79427 16.0053C4.81235 16.0345 4.8297 16.0648 4.86439 16.1255C4.89865 16.1853 4.91618 16.2152 4.93203 16.2452C5.0787 16.5229 5.15723 16.8315 5.16259 17.1455C5.16316 17.1794 5.16267 17.2137 5.16151 17.2827L5.15463 17.6902C5.14304 18.3763 5.138 18.7197 5.23402 19.0273C5.31896 19.2994 5.46094 19.55 5.65072 19.7627C5.86525 20.0031 6.16264 20.1745 6.75717 20.5171L7.25087 20.8015C7.84372 21.1432 8.14004 21.3138 8.45478 21.379C8.73323 21.4366 9.02074 21.4344 9.29818 21.3721C9.61176 21.3017 9.90557 21.1258 10.4925 20.7743L10.8463 20.5625C10.9023 20.5289 10.9307 20.5121 10.9587 20.4965C11.237 20.3418 11.5473 20.2558 11.8656 20.2456C11.8976 20.2446 11.9303 20.2446 11.9955 20.2446C12.0609 20.2446 12.0935 20.2446 12.1256 20.2456C12.4445 20.2559 12.7568 20.3422 13.0355 20.4975C13.06 20.5112 13.0846 20.526 13.1277 20.5519L13.5039 20.7777C14.0932 21.1315 14.3877 21.3081 14.7026 21.3788C14.9811 21.4413 15.2697 21.4438 15.5492 21.3855C15.8646 21.3196 16.1618 21.1471 16.7547 20.803L17.2497 20.5157C17.8379 20.1743 18.1328 20.0031 18.3456 19.7636C18.5344 19.5512 18.6756 19.3011 18.7601 19.0297C18.8549 18.7252 18.8491 18.3858 18.8378 17.7119L18.8304 17.2724C18.8293 17.2081 18.8292 17.1761 18.8297 17.1445C18.8344 16.8247 18.9156 16.5104 19.0667 16.2286C19.0817 16.2007 19.0979 16.1726 19.1299 16.1171C19.1621 16.0615 19.1788 16.0337 19.1955 16.0068C19.3642 15.7349 19.5956 15.5074 19.8704 15.3435C19.8973 15.3275 19.9249 15.3122 19.9799 15.2818L19.9818 15.2809L20.3433 15.0805C20.9449 14.7472 21.2462 14.5801 21.465 14.3427C21.6586 14.1327 21.8046 13.8839 21.8939 13.6126C21.9942 13.3077 21.9934 12.9658 21.9919 12.2861L21.9906 11.7119C21.989 11.0287 21.9882 10.6874 21.887 10.3828C21.7976 10.1133 21.6516 9.86561 21.4591 9.65685C21.2418 9.42111 20.9436 9.25526 20.3478 8.92378L20.346 8.92293Z" stroke="currentColor" stroke-width="2" stroke-linecap="round" stroke-linejoin="round"/>
<path d="M7.99642 12C7.99642 14.2091 9.78728 16 11.9964 16C14.2056 16 15.9964 14.2091 15.9964 12C15.9964 9.79082 14.2056 7.99996 11.9964 7.99996C9.78728 7.99996 7.99642 9.79082 7.99642 12Z" stroke="currentColor" stroke-width="2" stroke-linecap="round" stroke-linejoin="round"/>
</svg>
