<svg width="15" height="14" viewBox="0 0 15 14" fill="none" xmlns="http://www.w3.org/2000/svg">
<path d="M5.9375 1.75025H6.5625C7.25286 1.75025 7.8125 2.27259 7.8125 2.91692V5.25034C7.8125 6.86117 6.41339 8.167 4.6875 8.167M3.4375 1.75025H2.8125C2.12214 1.75025 1.5625 2.27259 1.5625 2.91692V5.25034C1.5625 6.86117 2.96161 8.167 4.6875 8.167M4.6875 8.167V9.62534C4.6875 11.3972 6.22652 12.8337 8.125 12.8337C10.0235 12.8337 11.5625 11.3972 11.5625 9.62534V9.042M11.5625 9.042C12.4254 9.042 13.125 8.38908 13.125 7.58367C13.125 6.77825 12.4254 6.12534 11.5625 6.12534C10.6996 6.12534 10 6.77825 10 7.58367C10 8.38908 10.6996 9.042 11.5625 9.042ZM5.9375 1.16699L5.93748 2.33354M3.4375 1.167V2.33367" stroke="#8A8A8A" stroke-width="1.5" stroke-linecap="round" stroke-linejoin="round"/>
</svg>
