<svg width="14" height="16" viewBox="0 0 14 16" fill="none" xmlns="http://www.w3.org/2000/svg">
<path d="M1 6H13M1 6V12.6001C1 13.4402 1 13.86 1.16349 14.1809C1.3073 14.4632 1.5366 14.6929 1.81885 14.8367C2.1394 15 2.55925 15 3.39768 15H10.6027C11.4411 15 11.8604 15 12.1809 14.8367C12.4632 14.6929 12.6929 14.4632 12.8367 14.1809C13 13.8604 13 13.4411 13 12.6027V6M1 6V5.40015C1 4.56007 1 4.13972 1.16349 3.81885C1.3073 3.5366 1.5366 3.3073 1.81885 3.16349C2.13972 3 2.56007 3 3.40015 3H4M13 6V5.39768C13 4.55925 13 4.1394 12.8367 3.81885C12.6929 3.5366 12.4632 3.3073 12.1809 3.16349C11.86 3 11.4402 3 10.6001 3H10M4 3H10M4 3V1.5M10 3V1.5M8.875 10.5H7M7 10.5H5.125M7 10.5V8.625M7 10.5V12.375" stroke="black" stroke-width="2" stroke-linecap="round" stroke-linejoin="round"/>
</svg>
