<svg width="24" height="24" viewBox="0 0 24 24" fill="none" xmlns="http://www.w3.org/2000/svg">
<path d="M8.3457 14.5899C8.81154 14.0903 9.3748 13.6915 10.0007 13.418C10.6267 13.1446 11.3025 13.0025 11.9855 13.0001C12.6686 12.9977 13.3448 13.1353 13.9726 13.4044C14.6004 13.6735 15.1666 14.0683 15.636 14.5646M6.15234 11.5439C6.89769 10.7446 7.7989 10.1066 8.80038 9.66902C9.80186 9.23148 10.8822 9.00389 11.9751 9.00007C13.0679 8.99626 14.1495 9.21651 15.154 9.64704C16.1585 10.0776 17.0647 10.7094 17.8156 11.5035M3.22656 8.81635C4.34458 7.61742 5.6964 6.66028 7.19862 6.00398C8.70084 5.34768 10.3208 5.0058 11.9602 5.00007C13.5995 4.99435 15.2238 5.32472 16.7305 5.97052C18.2373 6.61632 19.596 7.56458 20.7224 8.75568M12.0029 19.0001C11.4506 19.0001 11.0029 18.5524 11.0029 18.0001C11.0029 17.4478 11.4506 17.0001 12.0029 17.0001C12.5552 17.0001 13.0029 17.4478 13.0029 18.0001C13.0029 18.5524 12.5552 19.0001 12.0029 19.0001Z" stroke="currentColor" stroke-width="2" stroke-linecap="round" stroke-linejoin="round"/>
</svg>
