<svg width="24" height="24" viewBox="0 0 24 24" fill="none" xmlns="http://www.w3.org/2000/svg">
<path d="M8.3457 14.5898C8.81154 14.0902 9.3748 13.6914 10.0007 13.418C10.6267 13.1445 11.3025 13.0024 11.9855 13C12.6686 12.9976 13.3448 13.1353 13.9726 13.4044C14.6004 13.6734 15.1666 14.0682 15.636 14.5645M6.15234 11.5439C6.89605 10.7464 7.79496 10.1093 8.79384 9.67188C9.79273 9.23441 10.8707 9.00575 11.9612 9M3.22656 8.81649C4.3447 7.61743 5.69669 6.66021 7.19911 6.00391C8.70152 5.3476 10.3227 5.00558 11.9622 5M16.0029 8.99997L18.0029 6.99998M18.0029 6.99998L20.0029 5M18.0029 6.99998L16.0029 5M18.0029 6.99998L20.0029 8.99997M12.0029 19C11.4506 19 11.0029 18.5523 11.0029 18C11.0029 17.4477 11.4506 17 12.0029 17C12.5552 17 13.0029 17.4477 13.0029 18C13.0029 18.5523 12.5552 19 12.0029 19Z" stroke="currentColor" stroke-width="2" stroke-linecap="round" stroke-linejoin="round"/>
</svg>
