<svg width="24" height="24" viewBox="0 0 24 24" fill="none" xmlns="http://www.w3.org/2000/svg">
<path d="M17.8535 11.5442C17.0504 10.6829 16.067 10.0096 14.9736 9.57227M20.7788 8.81625C19.5741 7.52437 18.0991 6.51439 16.459 5.8584C14.8189 5.20241 13.0543 4.91635 11.291 5.02111M8.3457 14.5905C8.95864 13.9332 9.73741 13.4532 10.6001 13.2012C11.4627 12.9491 12.3774 12.9335 13.2479 13.1574M6.15234 11.5438C7.10071 10.5268 8.29779 9.77461 9.62552 9.36133M3.22656 8.81604C4.12443 7.85319 5.17462 7.04466 6.33504 6.42285M4.41699 4L18.5591 18.1421M12.0029 19C11.4506 19 11.0029 18.5523 11.0029 18C11.0029 17.4477 11.4506 17 12.0029 17C12.5552 17 13.0029 17.4477 13.0029 18C13.0029 18.5523 12.5552 19 12.0029 19Z" stroke="currentColor" stroke-width="2" stroke-linecap="round" stroke-linejoin="round"/>
</svg>
