<svg width="24" height="24" viewBox="0 0 24 24" fill="none" xmlns="http://www.w3.org/2000/svg">
<path d="M8.34277 14.5898C8.80861 14.0903 9.37187 13.6915 9.9978 13.418C10.6237 13.1446 11.2986 13.0024 11.9816 13C12.6647 12.9977 13.3409 13.1353 13.9687 13.4044C14.5965 13.6735 15.1627 14.0683 15.6321 14.5646M6.14844 11.5439C6.89378 10.7446 7.79499 10.1065 8.79647 9.66899C9.79795 9.23146 10.8793 9.00386 11.9721 9.00005C13.065 8.99623 14.1466 9.21648 15.1511 9.64701C16.1556 10.0775 17.0608 10.7084 17.8117 11.5025M11.999 19C11.4467 19 10.999 18.5523 10.999 18C10.999 17.4478 11.4467 17 11.999 17C12.5513 17 12.999 17.4478 12.999 18C12.999 18.5523 12.5513 19 11.999 19Z" stroke="currentColor" stroke-width="2" stroke-linecap="round" stroke-linejoin="round"/>
</svg>
